<?xml version="1.0" standalone="no"?>
<!DOCTYPE svg PUBLIC "-//W3C//DTD SVG 20010904//EN"
 "http://www.w3.org/TR/2001/REC-SVG-20010904/DTD/svg10.dtd">
<svg version="1.0" xmlns="http://www.w3.org/2000/svg"
 width="665.000000pt" height="665.000000pt" viewBox="0 0 665.000000 665.000000"
 preserveAspectRatio="xMidYMid meet">
<metadata>
Created by potrace 1.14, written by Peter Selinger 2001-2017
</metadata>
<g transform="translate(0.000000,665.000000) scale(0.100000,-0.100000)"
fill="#000000" stroke="none">
<path d="M1186 4205 c-22 -8 -43 -12 -47 -9 -4 2 -13 -2 -21 -9 -7 -7 -29 -22
-48 -34 l-36 -22 -52 26 c-57 28 -132 37 -172 20 -14 -5 -32 -11 -40 -13 -8
-2 -20 -10 -26 -18 -6 -9 -14 -16 -18 -16 -14 0 -117 -121 -128 -149 -1 -5
-12 -11 -23 -13 -23 -4 -126 -108 -108 -108 5 0 1 -6 -7 -13 -8 -7 -32 -38
-54 -69 -21 -32 -43 -58 -48 -58 -5 0 -7 -4 -4 -8 3 -5 -3 -18 -12 -28 -10
-10 -19 -21 -19 -24 -1 -3 -7 -18 -13 -35 -6 -16 -13 -46 -15 -65 -2 -19 -4
-37 -5 -40 -2 -6 1 -95 4 -127 1 -12 19 -50 39 -84 20 -34 37 -66 37 -70 0 -5
5 -9 10 -9 6 0 10 -6 10 -13 0 -18 67 -85 104 -104 68 -35 167 -47 216 -26 8
3 18 7 22 7 3 1 10 4 14 9 4 4 14 7 23 7 12 0 16 -12 17 -53 1 -46 8 -102 15
-117 1 -3 3 -9 3 -15 1 -5 8 -21 16 -35 7 -14 13 -27 12 -30 -4 -11 10 -40 19
-40 5 0 9 -9 9 -20 0 -11 4 -20 10 -20 5 0 17 -16 26 -35 9 -19 33 -54 54 -77
l38 -43 295 -3 c241 -2 302 0 330 12 30 12 39 12 62 0 15 -8 33 -14 39 -13 46
5 916 -3 915 -8 -1 -5 -1 -38 0 -74 1 -49 6 -70 20 -86 11 -11 28 -38 40 -60
12 -24 30 -43 43 -47 36 -9 228 -7 228 3 0 5 9 11 21 14 14 4 18 10 13 18 -5
9 -2 10 9 6 21 -8 24 3 26 123 1 57 3 105 5 107 1 1 194 3 429 4 314 1 425 4
420 13 -4 6 2 4 13 -4 10 -8 16 -10 12 -6 -4 5 4 19 17 32 24 22 25 27 25 154
0 89 -3 130 -11 130 -8 0 -7 5 1 15 7 9 10 18 6 22 -3 3 -6 1 -6 -6 0 -7 -5
-9 -10 -6 -6 4 -7 11 -4 17 4 7 2 8 -4 4 -20 -12 -35 4 -20 22 10 12 10 14 0
8 -9 -5 -12 1 -10 23 1 16 6 27 10 25 4 -3 8 2 8 11 0 9 5 13 10 10 6 -3 10
-2 10 4 0 6 8 8 18 4 14 -5 13 -3 -3 10 -11 9 -15 17 -9 17 14 0 25 48 13 56
-5 3 -5 14 1 24 7 14 6 23 -5 34 -8 8 -15 26 -15 40 0 14 -4 26 -8 26 -4 0 -9
10 -9 22 -1 13 -9 27 -17 33 -13 10 -12 13 2 23 9 6 13 11 7 11 -5 -1 -21 2
-33 6 -18 6 -20 10 -10 16 10 7 10 9 1 9 -7 0 -13 7 -13 15 0 8 -5 15 -10 15
-6 0 -9 6 -8 13 2 6 -3 11 -9 9 -7 -1 -13 5 -13 13 0 8 -20 28 -45 45 -25 17
-45 28 -45 24 0 -4 -7 1 -16 12 -8 10 -12 12 -8 4 6 -12 5 -13 -7 -3 -8 6 -26
13 -39 15 -14 2 -29 6 -35 9 -13 8 -162 3 -195 -6 -14 -3 -29 -7 -35 -9 -28
-6 -91 -43 -119 -68 -17 -15 -34 -28 -39 -28 -4 0 -6 -4 -3 -9 3 -5 -1 -15
-10 -22 -9 -7 -20 -23 -25 -36 -4 -12 -14 -21 -21 -19 -7 1 -10 1 -5 -1 11 -7
8 -31 -5 -36 -10 -4 -9 -6 1 -6 11 -1 11 -4 0 -18 -12 -15 -12 -16 1 -8 13 8
13 7 0 -9 -18 -22 -39 -83 -32 -91 5 -5 3 -137 -3 -143 -1 -2 -18 -4 -36 -5
-32 -2 -34 0 -40 36 -3 21 -2 40 2 43 5 2 4 16 -1 29 -6 15 -6 27 0 30 6 3 6
15 0 30 -6 16 -6 27 1 31 6 3 6 11 2 17 -10 14 -9 89 1 105 4 7 3 12 -3 12 -6
0 -8 7 -5 15 4 8 1 15 -6 15 -6 0 -8 4 -5 10 3 5 -5 21 -19 35 -15 14 -26 37
-26 51 0 14 -4 22 -10 19 -5 -3 -10 1 -10 9 0 9 -3 15 -7 15 -5 -1 -12 0 -18
1 -5 2 -71 4 -145 5 -110 1 -137 -2 -148 -15 -11 -13 -12 -13 -7 0 4 8 -3 4
-14 -10 -11 -14 -19 -31 -16 -37 2 -7 1 -13 -3 -13 -5 0 -8 -27 -7 -59 1 -33
-2 -58 -7 -55 -4 3 -8 1 -8 -5 0 -5 5 -13 10 -16 6 -4 10 -65 10 -151 0 -88
-4 -144 -10 -145 -5 -1 -34 -2 -62 -3 l-53 -1 2 120 c1 76 -2 124 -9 133 -9
10 -8 16 1 22 10 5 10 9 2 11 -7 3 -13 14 -14 26 0 12 -3 20 -5 18 -8 -7 -52
44 -52 60 0 9 -4 13 -10 10 -9 -6 -14 9 -13 41 0 6 -6 11 -13 11 -7 0 -11 -5
-8 -11 3 -6 -1 -3 -9 6 -8 10 -17 14 -21 10 -4 -4 -7 -2 -6 3 5 21 0 36 -10
30 -9 -5 -16 -3 -66 23 -11 5 -26 7 -33 2 -7 -4 -28 -4 -47 0 -21 5 -34 4 -34
-2 0 -7 -5 -6 -13 1 -8 6 -16 8 -20 5 -9 -10 -57 -12 -57 -2 0 5 -9 4 -20 -2
-14 -8 -20 -8 -20 0 0 8 -6 8 -20 0 -14 -8 -20 -8 -20 0 0 8 -6 8 -20 0 -14
-8 -20 -8 -20 0 0 8 -6 8 -20 0 -14 -8 -20 -8 -20 0 0 8 -6 8 -20 0 -14 -8
-20 -8 -20 0 0 8 -6 8 -20 0 -11 -6 -20 -7 -20 -3 0 5 -12 8 -27 7 -16 -1 -36
-3 -46 -3 -10 -1 -15 -5 -12 -11 4 -6 -1 -7 -11 -3 -13 5 -15 3 -9 -7 6 -10 4
-12 -8 -7 -9 3 -18 0 -21 -9 -4 -10 -2 -12 6 -8 7 5 8 3 3 -7 -10 -15 -13
-119 -4 -119 3 0 6 -7 6 -15 0 -8 -3 -15 -7 -15 -14 0 -5 -95 10 -104 12 -8
11 -11 -5 -17 -19 -7 -19 -8 -1 -8 13 -1 16 -6 12 -17 -5 -14 -4 -15 8 -5 11
9 16 9 22 0 4 -8 3 -9 -4 -5 -7 4 -12 2 -12 -5 0 -7 8 -9 21 -6 16 4 18 3 9
-8 -9 -11 -7 -16 9 -25 12 -6 21 -16 21 -23 0 -8 -4 -7 -11 3 -9 13 -10 13 -6
0 2 -9 13 -14 27 -12 12 2 20 0 17 -5 -3 -5 3 -9 13 -9 12 0 16 4 10 11 -5 6
4 10 26 10 20 -1 39 -7 44 -15 8 -12 10 -12 10 -1 0 10 3 11 13 3 7 -6 19 -7
26 -3 7 5 28 5 47 1 19 -4 34 -4 34 1 0 4 7 6 16 2 10 -4 14 -14 11 -29 -2
-13 0 -24 4 -24 5 0 6 -6 4 -12 -4 -10 -53 -13 -200 -13 -107 1 -197 3 -200 6
-3 3 -5 90 -5 193 -1 126 -4 186 -11 186 -6 0 -8 8 -5 17 4 10 4 14 0 11 -7
-8 -34 16 -34 30 0 18 -35 49 -52 46 -10 -1 -18 2 -18 8 0 7 -5 7 -13 -1 -10
-8 -17 -7 -26 2 -9 9 -14 9 -21 -3 -6 -9 -10 -10 -10 -3 0 6 -7 13 -15 15 -11
2 -5 14 22 43 31 33 59 77 68 105 29 96 26 168 -13 250 -16 34 -24 46 -50 75
-7 8 -10 15 -6 15 4 0 -3 9 -16 20 -13 11 -20 20 -17 20 4 0 -1 9 -11 21 -30
36 -99 71 -144 72 -24 1 -45 5 -48 9 -3 3 -23 0 -44 -7z m724 -890 c0 -7 -30
-13 -34 -7 -3 4 4 9 15 9 10 1 19 0 19 -2z m100 -5 c0 -5 -2 -10 -4 -10 -3 0
-8 5 -11 10 -3 6 -1 10 4 10 6 0 11 -4 11 -10z m47 4 c-3 -3 -12 -4 -19 -1 -8
3 -5 6 6 6 11 1 17 -2 13 -5z m43 -14 c8 -5 11 -12 8 -16 -4 -3 -14 1 -23 10
-18 17 -9 21 15 6z"/>
<path d="M4134 3869 c-3 -5 -10 -7 -15 -4 -13 8 -51 -4 -44 -15 3 -4 -2 -11
-11 -14 -12 -5 -15 -17 -12 -51 2 -25 1 -45 -3 -45 -3 0 -3 -23 1 -50 4 -28 3
-53 -1 -56 -5 -3 -4 -16 1 -29 6 -15 6 -27 0 -30 -5 -3 -7 -12 -4 -19 7 -18
10 -196 4 -196 -8 0 -1 -591 6 -620 4 -14 6 -29 5 -33 -1 -5 3 -6 9 -2 6 3 7
11 4 17 -4 7 -2 8 5 4 6 -4 9 -12 6 -17 -4 -5 -1 -9 5 -9 6 0 8 -5 4 -12 -5
-7 -2 -9 8 -5 12 4 14 1 11 -14 -7 -26 15 -53 32 -39 9 8 14 6 18 -4 4 -9 15
-13 27 -11 11 2 20 0 20 -5 0 -5 13 -5 30 0 16 5 32 5 35 1 2 -5 22 -5 44 -1
22 4 45 4 52 -1 7 -4 18 -5 25 -2 7 2 21 0 31 -6 10 -6 13 -11 6 -11 -6 0 -9
-8 -7 -17 3 -15 11 -79 16 -120 1 -7 5 -10 10 -7 5 3 5 10 2 16 -5 7 -2 8 5 3
7 -4 10 -16 8 -27 -4 -16 -3 -17 9 -7 11 9 14 7 14 -13 0 -13 7 -33 16 -44 8
-10 13 -12 9 -4 -4 8 1 6 9 -4 9 -11 19 -17 22 -13 4 4 13 2 20 -4 7 -6 56 -9
121 -7 85 3 113 7 126 19 9 9 13 19 10 23 -4 3 -1 6 4 6 6 0 10 11 8 25 -1 14
2 25 7 25 5 0 7 4 4 9 -7 10 -12 159 -5 165 2 2 42 6 89 9 46 3 86 10 88 16 2
5 10 7 18 4 8 -3 14 0 14 7 0 6 4 9 9 5 6 -3 14 3 20 12 6 11 11 13 11 5 0 -7
5 -10 11 -6 6 3 9 14 6 25 -6 21 26 54 42 44 6 -3 11 -2 11 4 0 6 7 8 15 5 8
-4 15 -15 15 -25 0 -13 7 -19 21 -19 11 0 18 4 15 8 -2 4 4 9 15 9 11 1 17 -2
15 -6 -3 -4 1 -8 9 -8 8 0 12 4 9 9 -3 4 0 8 5 8 6 0 11 -5 11 -11 0 -8 4 -8
14 0 10 8 16 9 21 1 3 -5 12 -10 18 -10 7 0 6 4 -3 10 -13 8 -13 10 2 10 9 0
20 -5 23 -10 5 -8 12 -7 22 1 12 10 16 10 24 -2 7 -12 9 -12 9 1 0 13 1 13 10
0 9 -13 10 -13 10 0 0 12 2 13 9 1 5 -7 14 -11 20 -7 6 4 27 4 46 0 31 -5 34
-8 23 -22 -10 -12 -10 -14 0 -8 6 4 12 2 12 -3 0 -6 -4 -11 -8 -11 -5 0 -9 -7
-9 -15 0 -8 3 -15 6 -15 3 0 5 -33 5 -72 -2 -70 16 -128 38 -128 4 0 8 -8 8
-17 0 -10 9 -29 20 -43 18 -24 25 -25 135 -28 64 -2 126 -1 138 2 36 9 59 59
57 124 -1 31 -1 78 -1 103 l1 46 83 6 c45 3 96 10 112 17 17 6 31 11 33 11 6
-3 85 86 97 109 19 36 46 132 35 125 -9 -5 -7 10 3 35 7 14 3 521 -3 548 -2 6
-7 12 -12 12 -5 0 -6 5 -3 10 6 9 -8 14 -27 11 -7 -1 -10 21 -7 45 1 14 -46
44 -62 39 -9 -3 -20 -1 -24 5 -4 6 -13 7 -23 2 -20 -10 -84 -8 -101 2 -6 4
-11 3 -11 -2 0 -12 -60 -10 -60 3 0 6 -3 6 -8 0 -4 -6 -15 -11 -24 -12 -43 -2
-49 -4 -44 -12 4 -5 1 -11 -6 -13 -22 -8 -30 -99 -18 -220 3 -38 4 -71 2 -73
-3 -2 -4 -45 -3 -95 2 -68 -1 -90 -11 -91 -7 -1 -71 -2 -143 -2 l-130 -2 3
125 c2 69 7 129 13 134 15 16 12 386 -3 386 -10 0 -10 2 0 9 11 7 10 9 -3 15
-9 3 -13 11 -10 17 4 6 -3 13 -15 16 -16 4 -18 8 -8 14 10 7 10 9 1 9 -7 0
-13 7 -13 16 0 9 -5 12 -12 8 -8 -5 -9 -2 -5 9 8 21 -19 37 -56 33 -14 -2 -24
1 -21 5 3 5 -7 9 -21 9 -17 0 -24 -4 -19 -12 5 -7 3 -8 -7 -3 -19 12 -49 14
-55 3 -3 -5 -11 -5 -17 0 -7 5 -34 7 -62 6 -27 -2 -57 -4 -67 -4 -9 -1 -19
-12 -22 -26 -4 -13 -11 -24 -17 -24 -6 0 -7 -4 -4 -10 3 -5 2 -10 -2 -10 -13
0 -12 -84 1 -92 8 -6 8 -8 0 -8 -13 0 -13 -59 0 -79 7 -10 6 -12 -4 -6 -10 6
-12 1 -8 -19 5 -25 3 -27 -16 -21 -11 4 -31 6 -43 6 -12 0 -25 4 -28 10 -5 7
-11 6 -21 -2 -8 -6 -14 -8 -14 -4 0 4 -8 1 -17 -6 -11 -10 -14 -10 -9 -1 4 7
1 12 -9 12 -10 0 -13 -5 -9 -12 5 -8 3 -8 -7 -2 -17 11 -169 14 -169 3 0 -4
-9 -10 -19 -14 -13 -4 -18 -13 -16 -25 2 -11 0 -20 -4 -20 -5 0 -7 -26 -6 -57
2 -32 -2 -64 -8 -71 -8 -10 -7 -16 4 -23 12 -8 12 -10 -1 -19 -10 -6 -11 -10
-2 -10 9 0 12 -33 12 -130 0 -97 -3 -130 -12 -131 -7 -1 -69 -2 -137 -2 -115
-2 -124 -1 -131 18 -4 11 -4 21 1 23 4 2 4 14 -1 27 -6 15 -6 27 0 30 6 3 6
15 0 30 -6 15 -6 27 0 30 6 3 6 15 0 30 -6 15 -6 27 0 30 6 3 6 15 0 30 -5 14
-5 27 0 30 5 3 5 18 0 35 -6 20 -5 30 3 34 7 2 8 5 2 5 -11 1 -12 132 -1 150
4 6 4 11 -1 11 -4 0 -7 34 -5 75 2 47 -1 75 -8 75 -5 0 -10 7 -10 15 0 8 -4
15 -10 15 -5 0 -10 7 -10 15 0 8 -5 15 -11 15 -5 0 -8 4 -5 9 16 25 -75 81
-99 61 -6 -5 -15 -6 -19 -2 -11 11 -175 12 -182 1z m1112 -71 c4 -7 3 -10 -1
-5 -5 4 -16 0 -26 -9 -14 -12 -18 -13 -25 -2 -4 7 -4 10 1 6 4 -4 14 -1 22 7
18 18 20 18 29 3z m-1061 -1080 c5 4 5 1 1 -6 -6 -9 -11 -10 -20 -3 -7 6 -17
7 -21 3 -5 -4 -5 -1 -1 6 6 9 11 10 20 3 7 -6 17 -7 21 -3z m69 1 c9 8 13 7
13 -3 0 -17 -30 -14 -33 3 -2 7 0 7 3 1 3 -7 9 -8 17 -1z m164 -14 c-3 -3 -9
2 -12 12 -6 14 -5 15 5 6 7 -7 10 -15 7 -18z m-91 9 c-3 -3 -12 -4 -19 -1 -8
3 -5 6 6 6 11 1 17 -2 13 -5z m57 -5 c-4 -7 -44 0 -44 7 0 2 11 3 24 2 14 -1
23 -5 20 -9z m-247 -64 c0 -8 -4 -12 -9 -9 -4 3 -8 9 -8 15 0 5 4 9 8 9 5 0 9
-7 9 -15z"/>
<path d="M5166 3843 c-6 -14 -5 -15 5 -6 7 7 10 15 7 18 -3 3 -9 -2 -12 -12z"/>
<path d="M5121 2716 c-9 -11 -9 -16 1 -22 7 -4 10 -4 6 1 -4 4 -3 14 3 22 6 7
9 13 6 13 -2 0 -10 -6 -16 -14z"/>
<path d="M3930 2649 c0 -5 5 -7 10 -4 6 3 10 8 10 11 0 2 -4 4 -10 4 -5 0 -10
-5 -10 -11z"/>
</g>
</svg>
